<svg xmlns="http://www.w3.org/2000/svg" viewBox="0 0 145.48 27.07" style="fill: rgb(0, 0, 0);" original_string_length="1333"><g data-name="Layer 2"><g data-name="Layer 1"><path d="M31.8,22.64H29.58L22.47,8.18H10.23q-2.36,0-2.37,2.58v5.6c0,1.82,1,2.74,3.13,2.75H22.26v3.63H9.66c-3.6,0-5.4-1.88-5.41-5.55V10q0-5.28,5.39-5.29H24.7l6.47,13.2,12.06-16A5.86,5.86,0,0,0,38.92,0H5.86A5.86,5.86,0,0,0,0,5.86V21.22a5.85,5.85,0,0,0,5.86,5.85H38.92a5.86,5.86,0,0,0,5.86-5.85V5.86c0-.09,0-.18,0-.27Z" style="fill: rgb(255, 255, 255);"/><path d="M73.55,8.14,59.67,19H73.6v3.58H53.78v-3.6L67.7,8.14H53.78V4.55H73.55Z" style="fill: rgb(255, 255, 255);"/><path d="M105.31,22.53h-3.59v-18H116.1c3.61,0,5.41,1.83,5.41,5.41l0,12.57H117.9v-12a2.15,2.15,0,0,0-2.4-2.34H105.31Z" style="fill: rgb(255, 255, 255);"/><path d="M144.68,18.93v3.6h-13.6q-5.34-.06-5.39-5.29V9.94q0-5.37,5.39-5.39h9c3.56,0,5.36,1.52,5.39,4.48v5.62H131.25V11h10.62V9.5c0-.91-.61-1.36-1.79-1.36H132c-1.82,0-2.74.86-2.74,2.57v5.57c0,1.78.81,2.66,2.43,2.65Z" style="fill: rgb(255, 255, 255);"/><path d="M91.68,8.13A2,2,0,0,1,94,10.42v6.81l3.2,2.94a4.82,4.82,0,0,0,.43-2.1V9.94c0-3.59-1.85-5.39-5.45-5.39h-9A7.19,7.19,0,0,0,80.64,5l3.44,3.17Z" style="fill: rgb(255, 255, 255);"/><path d="M84.46,19q-3.13,0-3.12-1.83v-6.7a4.51,4.51,0,0,1,0-.54L78.33,7.06a6.68,6.68,0,0,0-.58,2.88v8c0,3,1.81,4.57,5.39,4.6h9a8.61,8.61,0,0,0,2.6-.37L91.25,19Z" style="fill: rgb(255, 255, 255);"/></g></g></svg>